<svg xmlns="http://www.w3.org/2000/svg" width="500" height="85" viewBox="0 0 132.29 22.49"><g transform="matrix(1.0032854 0 0 1.0021624 -0.12557919 0.00748968)" style="stroke-width:0.8"><path d="M0.9 18.12C2.04 18.29 3.41 17.87 3.27 16.52 3.03 15.18 3.27 13.85 3.11 12.52 2.85 10.39 3.03 8.24 2.97 6.11 3.28 4.84 2.69 3.47 1.16 4.06-0.68 4.45 0.57 1.76 0.21 0.76-0.2-0.67 2.06 0.4 2.84 0.06c2.74 0.35 5.48 0.05 8.23 0.02 1.55 0.16 3.17-0.05 4.66 0.49 0.98 0.56 2 1.12 2.94 1.72 0.95 0.95 1.14 2.28 1.39 3.52 0.47 0.91-0.64 2.37 0.2 2.74-0.52 1.09-1.03 2.1-1.62 3.21-0.8 1.25-2.26 1.99-3.68 2.22-1.16-0.21-2.17 0.58-3.29 0.55-1.23-0.07-3.1-0.26-2.52 1.53-0.15 1.14 0.3 2.49 1.72 1.94 1.78-0.22 0.85 2.02 1.19 3.06-0.4 1.27-2.03 0.69-3.13 0.8C6.54 21.88 4.14 21.77 1.78 22.09 0.09 22.23 0.73 20.45 0.69 19.44 0.66 19 0.64 18.51 0.9 18.12ZM0.5 0.7c0.35 0.64 0.82-0.56 0 0zM0.59 1.97C0.7 1.43 2.55 0.83 1.87 0.6 1.42 0.96 0.83 1.49 0.59 1.97Zm0.5 0C0.22 2.44 1 2.67 1.34 1.97 1.78 1.58 2.95 0.9 2.86 0.66 2.27 1.09 1.66 1.5 1.09 1.97ZM3.57 1.47C2.52 1.86 1.93 3.37 0.65 3.03 0.46 4.14 1.52 3.5 1.85 2.97 2.77 2.24 3.83 1.66 4.66 0.82 4.27 0.98 3.97 1.32 3.57 1.47ZM5.37 1.78C5.87 1.67 7.49 0.35 6.23 1.18 5.92 1.34 5.53 1.43 5.37 1.78ZM3.39 1.07c0.6-0.09 0.08-0.32 0 0zM7.33 1.38c0.99-0.52-0.36-0.93 0 0zM11 1.19C8.99 2.38 7.08 3.71 5.09 4.91 4.79 5.32 3.12 6.49 4.02 5.29 5.19 4.6 6.26 3.73 7.4 3.03 8.22 2.48 9.05 1.81 9.98 1.36 10.74 0.6 8.51 1.63 8.28 2.01 6.64 3.07 4.86 3.93 3.39 5.23 2.83 5.62 3.38 7.25 3.95 6.07 5.1 5.71 5.88 4.75 6.96 4.28 8.7 3.09 10.59 2.12 12.3 0.88 11.87 0.99 11.39 0.96 11 1.19ZM8.64 0.98C6.8 2.14 5.14 3.61 3.17 4.55 3.61 5.16 4.77 3.52 5.5 3.33 6.56 2.68 7.53 1.9 8.61 1.28 8.74 1.26 8.99 0.9 8.64 0.98Zm4.44 0.59C12.59 1.73 11.79 2.52 12.73 1.9 13.31 1.67 14.77 0.62 13.47 1.32 13.35 1.42 13.23 1.51 13.08 1.56ZM2.3 1.88C2.68 1.62 3.69 0.85 2.7 1.47 2.53 1.55 2.35 1.68 2.3 1.88Zm8.2 0.59C10.76 3.11 11.89 1.58 12.53 1.42 13.54 0.71 11.32 2.03 10.5 2.47ZM5.06 1.19c0.24 0.15 0.13-0.37 0 0zm10.1 0.19c0.23-0.06-0.1-0.17 0 0zm0.9 0.19C14.62 2.13 13.23 2.9 12.18 4.05 13.3 3.57 14.21 2.69 15.34 2.2 15.81 2.2 16.72 1.15 16.06 1.57ZM3.29 4.14C4.62 3.35 5.86 2.41 7.12 1.5 5.82 1.97 4.7 2.88 3.59 3.71 3.61 3.84 3.07 4.09 3.29 4.14Zm0-1.58C3.88 2.26 5.21 1.06 3.85 2.01 3.62 2.13 3.38 2.3 3.29 2.56ZM14.75 1.66c0.47-0.03 0.01-0.34 0 0zM4.88 1.97c0.54 0 0.2-0.3 0 0zm6.93 1.58C12.51 3.07 14.13 2.12 14.21 1.88 13.36 2.36 12.45 2.8 11.8 3.55ZM4.16 2.47c0.39-0.09 0.4-0.49 0 0zm13.26-0.31c-1.36 0.91-2.93 1.64-4.13 2.74 0.71 1.21 1.87-0.4 2.67-0.77 0.42-0.4 2.19-0.97 1.82-1.28-1.07 0.9-2.46 1.3-3.65 2.02-0.74 0.14 0.83-0.67 1.03-0.88 0.79-0.54 2.07-1 2.48-1.73 0 0-0.23-0.09-0.23-0.09zm-5.71 0.31c0.43 0.05 0.37-0.44 0 0zm1.68 1.68C14.23 3.66 15.53 2.85 15.98 2.36 14.97 3.02 13.75 3.37 12.94 4.31 12.92 4.51 13.37 4.25 13.39 4.14ZM9.91 3.65C10.95 4.21 10.96 3.09 11.42 2.65 10.88 2.9 10.36 3.24 9.91 3.65ZM9.82 2.87C8.62 3.74 7.28 4.39 6.06 5.22 5.29 5.97 3.39 6.36 3.38 7.46 4.44 7.17 5.15 6.05 6.15 5.51 6.93 4.93 7.83 4.51 8.54 3.85 8.88 3.6 10.14 3.47 9.82 2.87Zm5.56 2.17c-0.71 0.11-1.64 1.58-0.46 0.58 0.93-0.66 1.84-1.33 2.81-1.92-0.07-0.1-1.58 0.89-2.23 1.27 0 0-0.12 0.08-0.12 0.08zM11.31 3.74c0.57 0.21 0.68-0.47 0 0zm3.67 2.49C16.11 5.67 17.07 4.81 18.25 4.36 18.85 4.08 19.07 3.45 18.28 3.98 16.82 4.78 15.56 5.88 14.07 6.63 14 7.12 14.92 6.37 14.97 6.23Zm-5.06 3.98c1.26 0.18 2.28-0.69 3.27-1.28C14.25 7.78 13.4 6.05 12.61 5.01 11.81 4.27 10.36 3.87 9.41 4.49 8.74 5.77 9.35 7.4 9.23 8.81 9.2 9.6 9.11 9.94 9.91 10.2ZM17.15 5.54C16.48 5.94 14.8 6.78 14.91 7.05 16.15 6.25 17.49 5.63 18.71 4.81 19.97 3.84 17.27 5.46 17.15 5.54ZM3.98 7.9C5.44 7.22 6.67 6.15 8.11 5.41 9.31 4.3 6.8 6.08 6.35 6.28 5.39 6.93 4.12 7.33 3.4 8.21 3.6 8.55 3.82 7.98 3.98 7.9ZM15.47 7.62c1.07-0.72 2.17-1.39 3.31-1.98 1.1-0.92-1.02 0.24-1.37 0.47-1.05 0.6-2.07 1.26-3.13 1.84-0.72 1.01 1.09-0.34 1.19-0.32zM13.67 5.64c0.16-0.4-0.55-0.32 0 0zM4.97 7.9C6.11 7.39 7.09 6.57 8.21 6.02 9.09 5.32 7.28 6.44 6.95 6.61 6.27 7 5.59 7.41 4.97 7.9Zm8.79-1.77c0.64 0.24 0.35-0.56 0 0zm1.71 2.49C16.46 7.73 17.87 7.39 18.71 6.34 17.61 6.8 16.53 7.54 15.44 8.11 14.52 8.6 13.57 9 12.95 9.88c-0.05 0.48 1.63-0.8 2.22-1.1 0 0 0.15-0.08 0.15-0.08 0 0 0.16-0.08 0.16-0.08zM8.05 6.72C6.58 7.37 5.26 8.3 3.85 9.05 2.58 10.08 4.6 8.98 5.01 8.68 6.15 7.93 7.39 7.31 8.48 6.48 8.55 6.19 8.09 6.79 8.05 6.72Zm11.09 0.09c0.69 0.12 0.23-0.43 0 0zm-5.75 3.48c-3.28 1.87-6.51 3.85-9.72 5.84 0.33 0.96 1.32-0.76 1.94-0.8 1.07-0.81 2.24-1.45 3.39-2.14 0.81-0.41 1.08-0.65 2.11-1.24 1.01-0.44 1.87-1.17 2.91-1.58 0.97-0.75 2.14-1.27 3.11-2.07 0.45-0.23 1.51-1.29 0.41-0.54-1.33 0.91-2.76 1.69-4.14 2.53zm0.87-2.89c-0.22-0.15-0.15 0.31 0 0zm4.66 0.22c0.27-0.08-0.17-0.12 0 0zM6.06 9.21C6.72 8.73 8.41 8.16 8.52 7.7 6.91 8.33 5.59 9.51 4.05 10.27 2.81 11.28 4.98 9.87 5.48 9.66 5.69 9.54 5.89 9.39 6.06 9.21ZM4.16 8.4c0.97-0.3 0.5-0.79 0 0zM19.13 8.21c0.46 0.34 0-0.62 0 0zM3.67 8.71c0.51-0.17 0.44-0.48 0 0zM6.74 9.89C7.16 9.37 8.77 8.79 8.56 8.48 6.8 9.35 4.96 10.16 3.48 11.47 4.34 11.88 5.18 10.58 5.98 10.28 6.22 10.13 6.49 10.02 6.74 9.89ZM6.15 8.4c-0.4 0.02 0.24 0.3 0 0zM5.37 8.8C4.94 9.35 3.45 9.79 3.54 10.15 4.26 9.7 5.44 9.02 5.82 8.65 5.69 8.7 5.54 8.88 5.37 8.8Zm9.88 1.77c0.97-0.36 2.76-1.41 2.92-1.86-1.29 0.79-2.61 1.53-3.85 2.39 0.31-0.3 0.92-0.12 0.93-0.54zm0.22 0.62c1.24-0.74 2.59-1.33 3.67-2.31-1.18 0.83-2.47 1.5-3.67 2.31zm-11.68 1.27c1.49-0.86 2.98-1.73 4.38-2.73 0.97-0.89-0.99 0.37-1.37 0.56-0.99 0.71-2.81 1.34-3.14 2.32 0 0 0.05-0.09 0.05-0.09 0 0 0.08-0.06 0.08-0.06zm4.44-2.27c-1.42 1-2.99 1.76-4.53 2.55-0.66 1.21 1.21-0.12 1.67-0.42 0.79-0.61 1.82-1.2 2.55-1.68 0.09-0.13 0.66-0.21 0.31-0.45zm0.31 0.09c0.42-0.65-0.49-0.14 0 0zm8.88 0.5c0.51-0.23 0.11-0.46 0 0zm0.81 0c-0.48 0.46-1.99 1.06-1.89 1.31 0.53-0.33 2.28-1.26 2.01-1.37 0 0-0.06 0.03-0.06 0.03 0 0-0.06 0.03-0.06 0.03 0 0 0 0 0 0zm-9.23 0c0.55-0.09 0.17-0.48 0 0zm-0.28-0.22c-1.66 1.22-3.53 2.12-5.16 3.39-0.16 0.69 0.49 0.65 0.24 0 0.75-0.63 1.75-0.92 2.54-1.53 0.82-0.6 1.8-1.04 2.55-1.68 0 0-0.02-0.06-0.02-0.06 0 0-0.16-0.11-0.16-0.11zm2.17 0.31c0.64-0.07 0.36-0.53 0 0zm0.81 3.08c1.74-1.01 3.57-1.87 5.27-2.96-0.28 0.03-1.74 0.83-2.48 1.17-0.98 0.5-1.95 1.07-2.79 1.79zM9.82 10.88c-0.56-0.03-0.1 0.24 0 0zm0.31 0.4c0.95-0.16 0.62-0.66 0 0zM9.23 11.2c0.4 0.02 0.14-0.44 0 0zm-1.09 0.59c0.62-0.02 1.47-0.9 0.4-0.22-0.14 0.06-0.27 0.14-0.4 0.22zm5.84-0.5c0.44 0.17 0.25-0.16 0 0zm1.4 0c-0.32-0.28-0.26 0.22 0 0zm-5.87 0.28c-1.29 0.85 1.47-0.66 0 0zm4.75 0.22c0.9-0.19 0.86-0.59 0 0zm-0.78-0.12c0.56-0.14 0.1-0.35 0 0zm-0.19 0.12c0.27 0.03-0.09-0.29 0 0zm2.55 1.09c-1.16 0.61 1.17 0.03 1.39-0.41 0.53-0.19 0.92-1.02 0.14-0.4-0.5 0.27-1.02 0.53-1.52 0.81zm-1.77-0.99c0.23 0.12 0.03-0.3 0 0zm-6.43 0.4c0.56-0.16 0.48-0.85 0 0zm0.59 0.09c0.71-0.03 0.73-0.7 0 0zm4.57-0.31c0.3 0.07 0.09-0.24 0 0zm-5.96 0.4c-0.41 0.51-2.14 1.3-2.01 1.43 0.66-0.57 2.43-1.14 2.43-1.61 0 0-0.18 0.08-0.18 0.08 0 0-0.24 0.11-0.24 0.11zm6.15 0c0.64-0.16 0.58-0.48 0 0zm-0.81 0c0.53-0.39-0.35-0.07 0 0zm-0.37-0.09c-0.22-0.15-0.15 0.31 0 0zm-6.65 1.68c-0.45 0.14-1.77 0.94-1.33 1.07 1.36-0.88 2.82-1.61 4.11-2.58-0.79 0.24-1.81 1.18-2.78 1.51zm7.33-1.27c-0.5 0.24-2.27 0.81-1.82 1.25 0.82-0.27 1.4-1.17 2.17-1.51-0.14 0.04-0.23 0.18-0.35 0.26zm2.39 0.09c0.36 0.09 0.14-0.43 0 0zm-0.5 0.19c0.46 0.09 0.43-0.49 0 0zm-1.49 0.9c0.73-0.05 1.96-1.39 0.66-0.48-0.24 0.13-0.47 0.28-0.66 0.48zm-2.98-0.31c-0.26-0.09 0 0.38 0 0zM5.84 14.46c0.41-0.1 0.17-0.43 0 0zm-0.09 0c-0.34 0.07 0.26 0.1 0 0zm-0.37 0.19c-0.55 0.25-2.29 1.46-0.89 0.66 0.14-0.14 1.18-0.62 0.89-0.66zM3.39 18.4C4.61 17.78 5.66 16.95 6.75 16.1 7.31 15.78 8.21 15.02 7.13 15.75 5.87 16.61 4.45 17.27 3.39 18.4Zm5.34-2.95c0.29-0.31-0.24-0.1 0 0zm-6.24 4.35c0.99-0.52 2.04-0.97 2.91-1.68 0.97-0.56 1.78-1.38 2.84-1.68 0.68 0.04 0.71-0.83 0.02-0.24-2.39 1.28-4.75 2.64-7.04 4.09-0.45 1.13 1.11-0.45 1.27-0.5zm1.09 0.4C4.51 19.45 5.47 18.98 6.43 18.28 6.97 17.82 8.6 17.26 8.44 16.88 6.92 17.42 5.76 18.63 4.31 19.33 3.27 19.93 2.22 20.53 1.27 21.26 1.95 21.31 2.87 20.41 3.57 20.2Zm0.22-3.07c-0.22 0.7 1.22-0.81 0.15-0.07-0.05 0.02-0.1 0.05-0.15 0.07zm4.26 0.78C7.24 18.12 7.32 18.57 8.04 18.02 8.62 17.76 9.03 17.23 8.2 17.8 8.15 17.83 8.1 17.87 8.05 17.91ZM7.92 18.62C8.63 18.42 9.02 17.99 8.13 18.46 8.05 18.5 7.99 18.57 7.92 18.62Zm-1.37 0.19c0.85-0.28 0.8-0.7 0 0zM2.49 18.62c-0.46 0.23-1.82 1.41-0.59 0.66 0.38-0.17 1.81-0.93 0.59-0.66zm4.16 1.96c-0.43 0.32-1.35 1.08-0.33 0.45 1.37-0.79 2.67-1.69 4.09-2.41-1.36 0.43-2.45 1.42-3.76 1.96zM6.83 19.21C6.11 19.37 6.05 19.94 6.74 19.39 7.4 19.08 7.4 19 7.85 18.74 7.49 18.81 7.11 18.95 6.83 19.21Zm-1.18 1.68c0.93-0.64 1.92-1.17 2.81-1.83 1.31-0.77-0.85 0.29-1.23 0.53-0.63 0.33-1.91 1.08-1.94 1.46 0.11-0.07 0.2-0.25 0.36-0.16zm5.34-1.99c0.23 0.01 0-0.21 0 0zM4.97 19.71c-0.52 0.17-2.07 1.45-0.75 0.64 0.49-0.44 2.01-1.14 1.91-1.31-0.39 0.22-0.71 0.58-1.16 0.67zm1.77 1.58c1.13-0.07 1.93-1.05 2.9-1.53 0.53-0.31 1.64-1.11 0.49-0.42-1.14 0.63-2.3 1.25-3.39 1.96zm1.49 0c1.01-0.37 2.84-1.69 3.07-1.93-1.05 0.6-2.14 1.14-3.07 1.93zm-4.75 0.09c0.83 0.1 1.05-1.18 2-1.27 0.97-0.68-1.05 0.43-1.36 0.66-0.24 0.17-0.46 0.37-0.64 0.61zM9.51 21.29c0.69 0.07 1.43-1.23 0.41-0.32-0.15 0.09-0.28 0.2-0.41 0.32zm-6.43-0.4c-0.85 0.5 0.23 0.18 0.26-0.15 0 0-0.1 0.04-0.1 0.04 0 0-0.16 0.11-0.16 0.11zm7.33 0.4c0.73 0.24 1.61-0.44 0.44-0.17-0.15 0.01-0.34 0.03-0.44 0.17zm-5.65 0.09c0.56-0.1 0.1-0.56 0 0zm-2.45 0c0.22 0.01 0-0.24 0 0z" class="a"/><path d="m36.93 10.17c-0.16 1.08 0.44 2.12 0.76 3.12 0.65 1.7-0.05 3.52-0.92 4.99-0.86 1.92-2.92 2.98-4.9 3.38-1.72 0.39-3.47 0.08-5.17-0.29-1.6-0.19-3.01-1.3-3.71-2.72-1.21-1.63-1.81-3.7-1.69-5.72 0.14-1.6 1.03-3.03 2.07-4.2 0.84-0.92 2-1.37 3.1-1.88 1.6-0.44 3.26-0.68 4.93-0.49 1.71 0.39 3.4 1.19 4.61 2.48 0.3 0.45 0.41 1.08 0.94 1.33zm-4.72 8.26c1.05-0.79 2.26-1.32 3.33-2.07 0.43-0.19 2.14-1.25 1.46-1.3-2.99 1.7-5.82 3.71-8.93 5.2-0.66 0.05-1.73 1.32-0.42 0.63 1.15-0.69 2.4-1.21 3.53-1.94 0.41-0.26 0.63-0.48 1.04-0.52zM28.05 9.15c-1.82 1.18-3.56 2.47-5.3 3.76-0.64-0.63 1.28-1.32 1.74-1.77 1.55-1.03 2.99-2.19 4.55-3.2 0.58-0.34 1.79-1.51 0.5-0.63-1.9 1.42-3.83 2.8-5.79 4.13-0.6 0.64-2.25 1.18-1.74 2.19 1.78-1.32 3.7-2.54 5.47-3.92 0.78-0.5 2.24-1.46 2.44-1.88-0.63 0.42-1.27 0.84-1.85 1.32zM27.96 7.56c-1.92 1.39-3.89 2.73-5.73 4.22 0.1 0.33 1.73-0.93 2.3-1.27 1.53-1.14 3.05-2.28 4.59-3.4 0.09-0.55-1.05 0.37-1.16 0.46zm-5.34 2.92c-0.44 1.31 1.07-0.47 1.57-0.56 1.03-0.77 2.05-1.54 3.08-2.32 0.98-0.93-0.95 0.32-1.25 0.56-1.11 0.8-2.16 1.72-3.41 2.32zM30.78 8.34C31.32 8.18 32.58 6.82 31.35 7.57 30.7 8.06 31.19 7.77 30.78 8.34ZM33.08 7.81c0.58 0.11 0.16-0.35 0 0zm0.47 0.22c0.74 0.2-0.35-0.56 0 0zm-2.76 1.18C31.31 8.82 32.62 8.16 32.69 7.99 31.99 8.29 31.37 8.74 30.78 9.21Zm1.59-0.37c0.56-0.13 1.35-0.89 0.31-0.4-0.62 0.46-2.02 1.24-2.14 1.54 0.56-0.46 1.32-0.6 1.83-1.13zm-1.74 1.71c1.23-0.53 2.22-1.48 3.41-2.07 0.35-0.56-1.17 0.57-1.49 0.68-0.68 0.4-1.34 0.85-1.91 1.39zM24.42 8.68c0.6-0.22 0.27-0.48 0 0zm4.66 0.84c0.49-0.24 1.83-1.45 0.56-0.6-0.23 0.14-0.51 0.31-0.56 0.6zm5.4-0.84c0.64-0.15-0.07-0.31 0 0zm-0.53 0.37c0.58-0.25 0.52-0.71 0 0zm-0.71 0.87c-0.43 0.3-2.11 1.05-1.6 1.3 1.16-0.7 2.31-1.43 3.43-2.18-0.39-0.19-1.36 0.64-1.83 0.89zM24.1 9.14c0.31 0 0.06-0.24 0 0zm9.54 0.06c0.35-0.1-0.04-0.25 0 0zm-3.01 0.16c0.47-0.25-0.18-0.23 0 0zm2.67 0c0.33 0 0.31-0.34 0 0zm-3.51 0.09c0.22 0.03-0.09-0.27 0 0zm2.83 0.4c0.47-0.2 0.8-0.76 0.14-0.14 0 0-0.14 0.14-0.14 0.14zm-1.02 2.02c1.27-0.45 2.28-1.42 3.47-2.03 1.11-0.91-0.91 0.27-1.21 0.48-0.78 0.48-1.53 1-2.26 1.55zm-8.2-2.27c0.34 0.02 0.05-0.24 0 0zm5.37 0c0.3 0.04 0.13-0.24 0 0zm2.73 0.93c0.89-0.4 0.85-0.68 0 0zm-2.42-0.06c-1.11-0.67-2.16 0.85-2.26 1.85-0.1 1.37 0.32 2.79 0.94 4 0.43 0.93 1.58-0.19 1.31 1.04 1.05 0.94 2.54-0.39 2.44-1.58 0.14-1.45 0.09-3.11-0.84-4.31-1 0.08-0.22-1.36-1.58-1zm6.83-0.15c-1.24 0.9-2.68 1.53-3.76 2.63 1.24-0.73 2.46-1.49 3.61-2.35-0.08 0.07 0.29-0.28 0.16-0.27zm-1.34 0.37c0.18-0.31-0.18-0.07 0 0zm-2.83 1.58c0.85 0.08 2.1-1.25 2.26-1.32-0.76 0.43-1.52 0.86-2.26 1.32zm1.34 0.56c-0.27 0.46 1.08-0.65 1.38-0.76 0.52-0.34 1.35-0.7 1.66-1.07-1.06 0.51-2.03 1.23-3.04 1.84zm-6.93-1.27c0.55 0.04 0.36-0.49 0 0zm8.01 1.27c-0.53 0.22-2.3 1-1.76 1.29 1.18-0.63 2.2-1.52 3.41-2.11 1.25-0.92-0.69 0.06-1.04 0.4-0.2 0.14-0.4 0.28-0.61 0.42zm-11.4 0.53c-0.5 0.36-1.11 0.93-0.18 0.33 0.77-0.53 2.35-1.53 2.56-1.83-0.81 0.47-1.59 0.99-2.37 1.49zm3.23-1.65c0.33 0.03-0.01-0.24 0 0zm-0.4 0.31c0.42-0.06 0.3-0.48 0 0zm9.75 0.81c-1.79 0.98 2.34-1.27 0.65-0.43-0.22 0.14-0.44 0.28-0.65 0.44zm-13.2 2.11c0.27 0.47 1.17-1.02 1.79-1 0.55-0.71 2.1-1.11 2.21-1.76-0.97 0.36-1.69 1.32-2.65 1.8-0.45 0.32-0.89 0.63-1.34 0.95zm2.67-2.27c0.32-0.17-0.14-0.21 0 0zm-0.31 0.16c0.26 0.08 0.05-0.36 0 0zm-2.3 2.98c1.28-1.06 2.78-1.83 4.03-2.93-1.37 0.9-2.98 1.61-4.03 2.93zm10.41-0.78c-1.03 0.45-0.13 0.75 0.33 0.11 1.07-0.76 2.28-1.31 3.23-2.23-1.24 0.59-2.39 1.4-3.56 2.12zm-8.73-1.83c0.4 0.13 0.16-0.31 0 0zm9.19 2.36c-0.5 0.08-1.58 1.2-0.4 0.65 1-0.86 2.22-1.41 3.19-2.29 0.41-0.15 1.59-1.2 0.48-0.5-1.09 0.71-2.18 1.42-3.26 2.14zm1.24-2.11c0.59-0.21 0.14-0.42 0 0zM23.48 13.55c0.48 0.09 0.07-0.61 0 0zm10.53 0.06c0.45-0.05 0.17-0.3 0 0zm-8.73 0.47c-0.71 0.59-2.62 1.48-2.57 1.98 1.19-0.85 2.44-1.61 3.6-2.51-0.38 0.1-0.65 0.41-1.02 0.53zm-2.2-0.22c0.59-0.11-0.09-0.24 0 0zm10.62 0c0.43 0.07 0.41-0.44 0 0zm-1.49 2.89c-1 0.81-1.9 1.78-3.12 2.29-0.64 0.24-0.94 0.97-0.11 0.3 1-0.41 1.74-1.21 2.66-1.73 1.09-0.58 2.11-1.27 3.19-1.86 0.74-0.57 1.97-0.96 2.37-1.7-0.89-0.42-1.79 1.17-2.77 1.4-0.74 0.44-1.48 0.87-2.22 1.3zm-9.44-2.67c0.32-0.55-1.51 1-0.4 0.31 0 0 0.21-0.15 0.21-0.15 0 0 0.2-0.16 0.2-0.16zm10.47 0.09c0.39-0.16 0.48-0.56 0 0zm-6.77-0.09c-1.28 0.7-2.48 1.55-3.64 2.41-0.22 0.84 1.7-0.92 2.28-1.17 0.32-0.55 1.59-0.48 1.36-1.24zm6.46 0.25c0.26 0.08 0.05-0.36 0 0zm-8.11 1.65c-0.52 0.42-1.75 0.84-1.66 1.49 0.98-1 2.47-1.33 3.39-2.38-0.58-0.02-1.23 0.54-1.73 0.89zm0.31 0.78c0.48-0.34 1.73-0.73 1.72-1.02-1.09 0.32-2.02 1.25-3.07 1.8-1.14 1.08 0.7 0.11 0.97-0.43 0 0 0.19-0.17 0.19-0.17 0 0 0.19-0.17 0.19-0.17zm9.19 1.18c-0.61 0.29-0.91 0.94-0.11 0.28 0.75-0.58 2.57-1.38 2.66-1.81-0.85 0.5-1.68 1.05-2.54 1.53zm-7.86-1.49c-0.28-0.01-0.1 0.37 0 0zm0.62 0.16c-0.83 0.89-2.42 1.55-3 2.29 1.03-0.66 2.03-1.4 3.05-2.08 0 0 0.04-0.12 0.04-0.12 0 0-0.1-0.09-0.1-0.09zm-2.42 1.18c0.6-0.12 2.13-1.65 0.82-0.62-0.28 0.2-0.56 0.4-0.82 0.62zm2.98-0.71c-0.94 0.68-3.12 2.02-3.31 2.22 1.03-0.72 2.76-1.33 3.32-2.22zm2.05 4.26c1.53-0.01 2.42-1.55 3.83-1.93 0.92-0.68 2.05-1.08 2.88-1.87-1.02 0.4-2.23 1.13-3.31 1.66-1.18 0.63-2.34 1.31-3.39 2.14zm-1.73-3.54c-1.2 0.43-2.31 1.22-3.33 1.94 0.8 0.16 1.99-1.33 2.93-1.75 0 0 0.2-0.1 0.2-0.1 0 0 0.2-0.09 0.2-0.09zm0.71 0.31c-1.33 0.36-2.37 1.35-3.51 2.07 1.1-0.31 2.15-1.2 3.24-1.72 0.2-0.03 0.41-0.53 0.27-0.35zm-4.57 0.16c0.34-0.09 0.02-0.31 0 0zm9.44 1.52c-0.56 0.35-1.73 0.98-1.87 1.23 1.64 0.12 3-1.08 4.04-2.21 0.51-0.66-1.21 0.47-2.17 0.99zm-0.31-1.02c0.39-0.16-0.08-0.26 0 0zM32.77 18.96c0.41 0.02-0.05-0.23 0 0zm-6.06 1.27c0.32-0.48 1.76-1.35 0.46-0.6-0.38 0.09-2.07 1.02-1.01 0.93 0.17-0.13 0.31-0.34 0.55-0.33zm4.26-0.62c0.62-0.08 0.14-0.5 0 0zm-2.7 0.16c-0.42-0.25-0.1 0.28 0 0zm-0.31 1.49c0.85-0.16 2.3-1.36 2.5-1.41-0.86 0.42-1.76 0.79-2.5 1.41zM27.49 20.14c0.24-0.05 0.64-0.5 0.19-0.16 0 0-0.18 0.16-0.18 0.16zm-0.25 0c-0.34 0.22 0.3 0.34 0 0zm1.74 1.12c0.47 0.07 0.27-0.48 0 0zm2.36 0c0.9 0.04 0.99-0.57 0 0zm-0.56 0c-0.21-0.16-0.1 0.15 0 0z" class="a"/><path d="m51.19 13.93c-0.3 0.31-1.22 1.04-0.31 0.44 1.41-1.01 1.62 1.71 2.61 2.28 0.38 1.26 1.51 1.6 2.69 1.62 0.64 0.75-0.04 2.17 0.19 3.21-0.62 1.06-2.39 0.47-3.49 0.54-1.23 0.16-2.69 0.08-3.15-1.3-0.47-0.14-0.79 0.08-0.44-0.57-0.55-0.24-0.54-2.44-1.82-1.8-1 1.08-2.07 2.13-2.99 3.3-1.2 0.89-2.78 0.04-4.14 0.21-1.14-0.16-0.47-1.87-0.78-2.73-0.87 0.22 0.69-0.72 0.36-1.22 1.05-0.6 2.6-0.06 3.24-1.51 0.78-1.16 2.84-2.36 1.26-3.66-0.31-0.96-1.7-1.54-1.67-2.22-1.18 0.63 0.05-1.12-1.09-0.7-1.13 0.29-1.69-0.51-1.48-1.56-0.23-1.15 0.42-2.57 1.77-1.98 1.35 0.06 2.76-0.04 4.07 0.34 0.97 0.36 1.1 1.55 1.93 2.09 0.39 0.79 1.22 1.57 1.84 0.45 0.56-0.82 1.48-1.97 1.42-2.64 1.42 0.26 2.83-0.33 4.18-0.14 1.12 0.89 0.6 2.68 0.55 3.9-0.56 0.45-1.59-0.29-2.16 0.59-0.85 0.92-1.72 1.86-2.39 2.92-0.07 0.13 0.04 0.3-0.17 0.17zM40.66 6.75c-0.25 1.04 1.23-0.47 0 0zm0.65 0.47c-0.93 0.51-0.38 0.67 0.26 0.17 0.49-0.17 1.46-0.85 0.3-0.48-0.19 0.1-0.37 0.21-0.56 0.31zm0.06 0.81c0.73-0.18 2.15-0.8 2.34-1.05-0.86 0.13-1.6 0.63-2.34 1.05zM53.3 7.56c-0.54 0.17-1.74 1.09-0.53 0.43 0.37-0.29 1.75-0.79 1.49-1-0.35 0.13-0.65 0.36-0.96 0.57zM42.96 8.87c0.73-0.61 2.55-1.38 2.62-1.85-1.25 0.82-2.66 1.44-3.88 2.29 0.47-0.04 0.77-0.59 1.26-0.44zm8.76-1.77c0.5 0.5 0.79-0.42 0 0zM44.54 7.22C43.4 7.48 42.38 8.14 41.31 8.58 40.77 8.81 40.38 9.48 41.26 9 42.42 8.53 43.41 7.74 44.54 7.22Zm6.71 0.65c-0.68 1.09 1.07-0.35 1.49-0.46 1.19-0.7-1.3 0.48-1.49 0.46zm3.17-0.31c0.62-0.12 0.63-0.54 0.05-0.04 0 0-0.05 0.04-0.05 0.04zm1.12 0.19c0.52 0.12 0.38-0.57 0 0zm-4.29 1.83c0.7-0.77 2.62-1.38 2.82-1.94-1.33 0.83-2.77 1.44-4.22 2.03-1.14 1.37 1.04-0.07 1.4-0.09zM45.6 7.81c0.42 0.09 0.1-0.39 0 0zm9.54 0c-2.13 1.08-4.24 2.2-6.31 3.4-0.93 0.89-2.66 1.06-3.23 2.17 1.12-0.59 2.25-1.1 3.31-1.79 1.16-0.68 2.34-1.28 3.48-2 0.92-0.55 2.15-1.1 2.84-1.73 0 0-0.01-0.02-0.01-0.02 0 0-0.06-0.02-0.06-0.02 0 0 0 0 0 0zM45.07 8.15c0.56-0.17 0.51-0.7 0 0zm-0.4 0.59c-0.52 0.15-2.63 1.21-1.11 0.73 1.01-0.46 2.18-0.92 2.97-1.61-0.64 0.24-1.22 0.63-1.86 0.89zm2.17-0.4c-1.1 0.75-2.44 1.16-3.53 1.84 0.73 0.32 1.94-0.84 2.77-1.24 0.07-0.17 1.17-0.42 0.77-0.6zm0.59 4.82c1.54-0.56 2.76-1.71 4.24-2.37 0.92-0.57 1.98-0.98 2.91-1.57 0.57-0.22 1.57-1.15 0.41-0.48-3.17 1.59-6.13 3.59-9.38 5.01 0.23 1.04 1.4-0.5 1.83-0.59zm4.01-4.53c0.48-0.09 0.05-0.3 0 0zm-0.12 0.06c-0.24-0.15-0.17 0.44 0 0zm-4.07 0.12c-1.08 0.87-2.77 0.96-3.51 2.24 1.3-0.28 2.34-1.16 3.46-1.8 0.14-0.08 0.47-0.46 0.05-0.43zm7.24 0.99c0.8 0.44 1.6-1.14 0.5-0.31-0.17 0.09-0.35 0.18-0.49 0.31zm-10.28 1.96c1.12-0.39 2.14-1.04 3.13-1.68 0.5-0.27 1.18-0.26 0.31-0.54-1.22 0.57-2.35 1.47-3.58 1.94 0 0 0.01 0.08 0.01 0.08 0 0 0.14 0.2 0.14 0.2zm4.88 0.93c-0.85 0.7 1.09-0.42 1.37-0.63 0.88-0.47 2.51-1.33 2.88-1.67-1.21 0.58-2.35 1.31-3.56 1.9-0.23 0.13-0.47 0.27-0.7 0.4zm-0.59-2.24c-0.91 1.02-2.46 1.16-3.32 2.22 0.4 0.08 1.86-0.9 2.59-1.37 0.19-0.16 1.34-0.57 0.73-0.85zm-3.17 1.31c-1.38 0.83 0.79-0.19 1.28-0.51 0.46-0.28 1.39-0.94 0.37-0.42-0.57 0.28-1.09 0.65-1.65 0.93zm2.17 2.77c1.34-0.67 2.68-1.36 3.86-2.29-1.13 0.5-2.51 1.32-3.77 1.87-1.18 0.68-2.64 0.97-3.59 1.98-0.76 0.96 1.19-0.48 1.61-0.64 0.62-0.32 1.31-0.57 1.9-0.93zm0.4-1.02c0.61-0.03 0.79-0.8 0.15-0.15 0 0-0.15 0.15-0.15 0.15zm2.36 0.31c-1.16 1.05-2.77 1.36-4.01 2.29-1.11 0.48-2.17 1.06-3.23 1.63-0.82 0.46-2.62 0.57-2.67 1.56 1.37-0.57 2.52-1.42 3.95-1.89 1.03-0.5 2.05-0.97 3.03-1.55 1.11-0.66 2.27-1.34 3.24-2.19 1.14-0.88-0.12-0.43-0.3 0.15zM47.56 13.62c0.34 0.22 0.09-0.23 0 0zm-0.06 0.12c-0.39-0.08-0.16 0.19 0 0zm-0.4 0.06c-0.37 0.1 0.31 0.17 0 0zm-0.47 0.4c0.55-0.15 0.05-0.3 0 0zm-1.37 0.65c0.42-0.26-0.22-0.14 0 0zm6.18-0.12c-1.8 0.9-3.66 1.69-5.4 2.7 1.47-0.53 3.02-0.9 4.29-1.85 0.38-0.23 1-0.37 1.11-0.85zm-0.4 0.99c-0.7 0.57-2.83 1.12-2.69 1.66 1.16-0.44 2.33-1 3.29-1.8 0.26-0.35-0.44 0.25-0.6 0.14zm0.4 0.9c0.64-0.21 1.33-1.17 0.24-0.44-0.94 0.69-2.59 1.21-3.2 1.81 1.13 0.26 1.97-1.1 2.96-1.37zm1.18-0.25c-1 0.95-3.33 1.52-3.71 2.41 1.09-0.39 2.03-1.08 3.04-1.65 0.22-0.17 0.81-0.41 0.66-0.76zm-9.35 0.4c0.35 0.05 0.1-0.36 0 0zm6.28 2.02c-1.03-0.1-0.23 1.37 0.4 0.47 1.16-0.52 2.46-1.14 3.31-2-0.99-0.52-2.04 1.12-3.13 1.33-0.19 0.08-0.38 0.14-0.57 0.2zm3.95-1.06c-1.23 0.92-2.7 1.44-4.01 2.24 1.26-0.11 2.18-1.12 3.35-1.5 0.24-0.16 0.82-0.36 0.66-0.73zm-8.42 0.16c0.34 0.02 0.01-0.27 0 0zm-4.82 0.25c0.5 0.27 0.82-0.41 0 0zm3.23 1.24c0.32-0.39 1.88-0.64 1.64-0.98-1.25 0.61-2.63 0.93-3.79 1.71-0.33 0.63 1.25-0.48 1.64-0.56 0.17-0.07 0.34-0.13 0.52-0.17zm2.55-0.65c0.82-0.24 0.58-0.62 0 0zm-0.37 0.12c0.56-0.12 0.23-0.33 0 0zm-5.47 0.93c0.54 0.62 1.69-0.73 2.38-0.99-0.74 0.21-1.58 0.72-2.37 0.99zM52.62 19.55c-0.61 0.21-2.36 1.11-2.07 1.17 1.12-0.71 2.41-1.18 3.51-1.8 0.42-0.58-1.38 0.64-1.45 0.63zm-9.41 0.44c0.59-0.31 2.05-0.77 2.09-1-0.71 0.29-1.48 0.49-2.09 1zM54.86 19.55c0.61-0.13 1.47-0.83 0.38-0.29-0.14 0.07-0.28 0.17-0.38 0.29zm-9.78 0.12c0.56-0.14 1.47-0.71 0.39-0.25-0.14 0.07-0.27 0.15-0.38 0.25zm9.13 0.19c0.63 0 0.68-0.59 0 0zm-0.78 0.99c-0.64 0.06-1.65 1.27-0.46 0.39 0.81-0.61 2.27-1.17 2.83-1.6-0.83 0.32-1.6 0.77-2.37 1.2zm-0.06-1.06c0.57-0.12 0.43-0.32 0 0zm-2.83 0.34c-0.78 0.2-0.51 0.52 0.08 0.02 0.9-0.52 1.1-0.65-0.08-0.02zm-6.34-0.15c0.68-0.1 0.65-0.46 0 0zm6.71 0.93c-0.33 0.44-0.57 0.42 0.12 0.18 0.52-0.43 1.99-0.89 1.97-1.17-0.71 0.3-1.37 0.72-2.09 1zm3.04-0.78c-0.76 0.1-2.1 0.79-2.67 1.39 0.93-0.37 1.71-1.06 2.67-1.39zm-12.58 0.65c0.47-0.19 2.4-1 0.92-0.51-0.33 0.13-0.65 0.28-0.92 0.51zm2.49-0.65c0.52-0.02 0.2-0.29 0 0zM41.9 21.51c1.01 0.09 2.98-0.9 3-1.29-1.06 0.26-2.02 0.84-3 1.29zm-0.53-0.25c0.59-0.2 2.14-0.87 2.07-0.98-0.62 0.33-2.42 0.95-2.23 1.14 0 0 0.11-0.05 0.11-0.05 0 0 0.05-0.11 0.05-0.11zM40.13 20.92c0.78-0.21-0.26-1.08 0 0zm15.66-0.59c-0.5 0.41-2.39 0.81-2.03 1.31 0.79 0.03 1.71-1.11 2.03-1.31zm-0.65 1.18c0.58 0.37 1.23-0.33 0.66-0.42-0.16 0.22-0.48 0.22-0.66 0.42z" class="a"/><path d="m76.2 1.57c0.83 0.36 1.62 1.33 2.11 2.3 0.86 1.3 0.96 3.07 0.04 4.38-0.29 1.05-2.07 1.36-2 2.29 1.37 0.92 3 1.87 3.44 3.58 0.71 0.89-0.02 2.27-0.12 3.31-0.25 1.17-1.02 2.21-2 2.87-1.02 0.45-2.04 0.95-3.16 1.1-1.62 0.38-3.32 0.12-4.93 0.56-2 0.13-4.03-0.1-6.02 0.17-1.14 0.12-2.29 0.27-3.44 0.3 0.03-1.18-0.06-2.56-0.04-3.81-0.16-1.5 2.57-0.42 1.97-2.3C62.22 12.92 62.05 9.5 62.21 6.1 62.48 4.75 61.16 4.26 60.09 4.73 58.94 4.26 59.72 2.48 59.33 1.45 59.09 0.06 60.29 0.11 61.29 0.25c1.35 0.1 2.68-0.08 4.03-0.09 1.33 0.07 2.63-0.02 3.94 0.3 1.25 0.02 2.5 0.25 3.75 0.25 1.03 0.26 2.42 0.05 3.19 0.86zM60.07 1.07c0.63-0.42-0.51-0.39 0 0zm5.53 0.56C65.93 1.35 67 0.67 65.89 0.7 64.63 1.35 63.7 2.59 62.38 3.25 62.14 3.65 60.66 3.98 61.89 4.02 63.23 3.84 64.03 2.56 65.2 1.99 65.35 1.89 65.48 1.76 65.6 1.63ZM61.91 0.79c-0.49 0.5-1.77 1.19-1.71 1.52 0.45-0.42 1.97-1.19 1.71-1.52zm1.34 0.12c-0.75 1.07-2.86 1.83-3 2.82 1.14-0.46 1.88-1.53 2.88-2.16 0.62-0.39 0.85-1.01-0.1-0.74 0 0 0.22 0.08 0.22 0.08zm0.12 1.43c0.15-0.53 1.55-1.34 1.25-1.45-1.19 0.77-2.2 1.78-3.3 2.67-0.08 0.56 1.35-0.64 1.62-0.99 0.08-0.16 0.39-0.12 0.43-0.23zM60.35 1.35c-1.03 1.27 1.59-1.11 0.17-0.14-0.06 0.05-0.11 0.09-0.17 0.14zM64.92 3.09C65.91 2.4 66.93 1.75 67.89 1.03 66.71 0.48 65.81 2.22 64.79 2.71c-0.63 0.63-1.85 1.04-2.05 1.89 0.72-0.41 1.38-1.13 2.18-1.51zm-0.65 1.43c1.23-0.9 2.45-1.87 3.72-2.75 0.42-0.23 1.59-1.2 0.41-0.73-0.87 0.88-2.15 1.45-3.14 2.26-0.77 0.88-2.68 1.19-2.56 2.47-0.24 1.08 0.36 1.15 1.06 0.51 1.31-0.77 2.55-1.65 3.79-2.51 1.04-0.88 2.51-1.59 3.3-2.58-1.21 0.59-2.32 1.53-3.51 2.21-1.33 0.82-2.59 1.74-3.77 2.75-1.27 0.48 0.28-0.62 0.63-0.89 0.87-0.83 1.9-1.65 3.02-1.93 0.05-0.23-0.76 0.36-0.19-0.2 1.07-0.57 1.99-1.34 3-2-1.69 0.42-2.78 1.93-4.28 2.72-0.91 0.41-2.01 2.03-2.81 1.68 0.31-0.44 0.88-0.74 1.35-1.01zm3.95-1.89c-0.62-0.08-0.81 0.88 0 0zm3.29-0.99c0.86-0.24-0.5-0.66 0.06-0.11 0 0-0.06 0.12-0.06 0.12zm-9.82-0.28c-0.28 0.07 0.1 0.21 0 0zm11.15 0c-1.11 0.74-2.79 2.1-3.51 2.61 1.31 0.07 2.16-1.15 3.26-1.67 0.48-0.44 2.02-0.91 0.66-0.96-0.13-0.04-0.29-0.04-0.41 0.03zm-7.02 0.28c0.58-0.22-0.14-0.29 0 0zm8.91 0.06c0.81-0.27-0.28-0.38 0 0zM61.47 1.91c0.77-0.03 0.55-0.78 0 0zm5.81-0.34c0 0-0.18 0.11-0.18 0.11 0 0 0.18-0.11 0.18-0.11zm-3.2 0.12c0.2 0.05 0.06-0.16 0 0zm3.7 2.45C68.63 4.13 69.03 3.14 69.9 2.93 70.41 2.66 71.88 1.17 70.5 2.22 69.59 2.87 68.69 3.52 67.78 4.14Zm4.97-1.12c0.38-0.41 1.99-1.13 1.56-1.19-0.99 0.77-2.56 1.26-3.18 2.21 0.63-0.05 1.11-0.69 1.62-1.02zM65.48 1.91c0.39 0.02 0.09-0.23 0 0zm-4.57 0.44c0.5 0.06 0.74-0.92 0 0zM75.3 1.91C74.24 2.84 72.77 3.32 71.96 4.51 73.15 3.72 74.34 2.9 75.59 2.2 75.78 2.03 75.38 1.89 75.3 1.91ZM67.56 2.34c0.53-0.14-0.01-0.26 0 0zm-1.12 0c-0.22-0.13-0.12 0.24 0 0zm-5.53 0.34c0.19-0.78-1.55 1-0.33-0.03 0.09-0.12 0.27-0.09 0.33 0.03zm2.24-0.06c0.29-0.16-0.18-0.33 0 0zM76.26 2.4c-1.07 0.76-2.4 1.22-3.25 2.25 1.24-0.53 2.51-1.29 3.47-2.12 0 0-0.11-0.06-0.11-0.06 0 0-0.11-0.07-0.11-0.07zm-8.14 0.12c0.5 0.06 0.4-0.18 0 0zm-1.02 0.22c0.29-0.12-0.18-0.35 0 0zm-2.61 0.06c0.43-0.26-0.17-0.19 0 0zm2.24 0.22c0.37-0.21-0.13-0.33 0 0zm-2.58 0c0.44-0.01-0.25-0.14 0 0zm3.42 0.06c0.07-0.36-0.35 0.15 0 0zm7.08 1.77c0.62-0.73 1.8-0.88 2.24-1.77-1.11 0.39-1.97 1.27-3.04 1.78-1.59 0.89 0.35 0.64 0.8-0.01zM66.26 3.3c-0.33 0.01-0.09 0.34 0 0zm-0.65 0.44c0.41 0.04 0.32-0.47 0 0zm0.65 0.12c0.44 0.16 0.78-0.75 0 0zm7.33 3.01c1.14-1.17 2.7-1.85 3.8-3.03-1.33 0.37-2.57 1.45-3.77 2.23-0.39 0.43-1.01 1.81-0.03 0.81 0 0 0 0 0 0zM67.78 3.8c0.34 0.07 0.13-0.19 0 0zm-3.85 0.12c0.55 0.07 0.23-0.31 0 0zm1.4 0.09c0.46-0.25-0.01-0.28 0 0zM67.56 3.93c0.35 0.03 0.13-0.29 0 0zm-7.42 0.09c0.82 0.15 0.2-0.44 0 0zm5.84-0.09c-0.09 0.57 0.53-0.29 0 0zm-2.17 0.16c-0.34 0.09 0.2 0.17 0 0zm3.42 0.22c0.36-0.17 0.01-0.17 0 0zm0.16 0.06C65.98 5.43 64.33 6.15 63.04 7.34 62.28 8.38 64.11 7.18 64.4 6.82 65.54 6.25 66.46 5.36 67.58 4.78 68.18 4.39 68.13 4.08 67.37 4.36Zm-2.73 0.22c0.53-0.33-0.1-0.48 0 0zm0 0.4c0.51 0.03 1.28-0.97 0.34-0.27 0 0-0.18 0.12-0.18 0.12 0 0-0.16 0.15-0.16 0.15zm2.17-0.4c0.16 0.11 0.12-0.66 0 0zm10.06 1.18c-0.19 0.49-2.15 1.6-0.82 0.83 0.63-0.43 2.84-1.26 1.58-2.06-1.27 0.62-2.3 1.74-3.5 2.53-0.45 0.35-1.62 1.31-1.59 1.32 1.01-0.48 1.76-1.28 2.75-1.89 0.64-0.6 1.81-1.75 2.56-1.38-0.23 0.36-0.68 0.38-0.98 0.64zM66.38 4.86c0.53 0.03 0.21-0.42 0 0zm4.19 3.29c1.49 0.1 2.84-2.05 1.24-2.93-0.9-0.54-3.45-1.42-3.47 0.27 0.47 1.01-0.18 3.01 1.54 2.67 0.23 0 0.46-0.02 0.69-0.01zm2.27-3.29c-0.55-0.41-0.44 0.45 0 0zM66.1 5.08c0.42-0.17 0.08-0.34 0 0zm-1.61 0.12c0.35-0.1-0.03-0.26 0 0zm1.27-0.12c0.07 0.38 0.46-0.08 0 0zm1.52 0.12c0.27 0.03-0.09-0.29 0 0zm-3.07 0.22c0.35 0.05 0.1-0.36 0 0zm1.34 0.06c0.46-0.15-0.02-0.38 0 0zm1.62-0.22c-0.02 0.19-0.17 0.2 0 0zm-0.9 0.78c-0.87 0.92-2.93 1.72-3.29 2.36 1-0.61 1.71-0.81 2.4-1.57 0.53-0.21 2.05-1.21 1.83-1.33-0.28 0.24-0.61 0.38-0.94 0.54zm6.87-0.28c0.55-0.42-0.55-0.66 0 0zM65.32 5.64c0.35-0.14-0.14-0.21 0 0zm-0.28 0c-0.3 0.12 0.3 0.12 0 0zm2.73 0.06c-1.59 1.27-3.44 2.15-5.03 3.42 0.43 0.65 1.45-0.89 2.08-1.08 1.04-0.67 2.01-1.44 2.95-2.17 0 0 0-0.17 0-0.17zm-1.24 0.06c-0.32 0-0.04 0.27 0 0zm-2.27 0.28c0.27 0.33 0.73-0.48 0 0zm1.77 0c0.53-0.1 0.11-0.28 0 0zM76.47 7.81c0.61-0.45 1.99-1 1.75-1.78-0.99 0.36-1.87 1.07-2.81 1.58-2.47 1.54-4.85 3.22-7.3 4.8 0.74-0.12 0.77-0.43 1.6-0.8 0.73-0.54 1.8-1.07 2.68-1.53 1.08-0.47 2.01-1.16 3.08-1.61 0.24-0.35 0.77-0.28 1-0.65zm-0.78 0.62c0.32-0.15-0.08-0.2 0 0zM73.18 6.32c0.26 0.07-0.08-0.37 0 0zm-9.38 0.16c0.45 0.1 0.13-0.48 0 0zm1.74-0.15c-0.06 0.45 0.32-0.21 0 0zm-2.8 3.73c0.29 0.86 1.29-0.78 1.9-0.78 0.96-1.01 2.58-1.41 3.28-2.56-0.63-0.39-1.64 1.06-2.45 1.36-0.93 0.63-1.86 1.27-2.73 1.98zm2.58-3.45c0.4-0.02 0.03-0.34 0 0zm-1.96 0.28c0.51-0.35 0.19-0.51 0 0zm2.52-0.06c0.35-0.05 0.01-0.36 0 0zm-0.96 0.06c0.38-0.01-0.2-0.39 0 0zM64.36 7.31c0.86-0.55 0.21-0.55 0 0zm1.18-0.22c0.25-0.16-0.05-0.32 0 0zm9.19 0.44c0.83-0.52 0.37-0.61 0 0zM65.26 7.31c0.35-0.08-0.14-0.25 0 0zm-1.34 0.22c0.51-0.1 0.06-0.29 0 0zm7.98 3.91c0.98-0.33 1.92-1.08 2.67-1.55 0.42-0.22 0.85-0.49 0.7-0.75 0.9-0.84 2.47-0.33 2.7-1.69-1.23 0.73-2.47 1.51-3.78 2.12-1.69 0.84-3.41 1.65-4.93 2.77 0.93 0.37 2.05-0.26 2.56-0.88 0 0 0.08-0.02 0.08-0.02zm2.52-3.79c0.42-0.18 0.2-0.28 0 0zm-11.68 3.79c0.88-0.91 2.11-1.38 3.05-2.23 0.51-0.32 2.26-1.15 1.87-1.43-1.75 0.98-3.32 2.25-5.01 3.33 0.19 0.06-0.12 0.3 0.09 0.34zm0.84-3.73c0.46-0.02 0.23-0.3 0 0zm-0.34 0.22c0 0-0.2 0.12-0.2 0.12 0 0 0.2-0.12 0.2-0.12zM73.68 8.15C74.36 8.02 74.51 7.48 73.82 8.07 73.77 8.09 73.72 8.12 73.68 8.15ZM64.27 7.93c0.38-0.3-0.39-0.06 0 0zm-0.68 0.34c0.06 0.11 0.42-0.34 0 0zm9.94 0c0.34 0-0.11-0.16 0 0zm-0.5 0.28c0.63 0.17 0.55-0.64 0 0zM64.64 8.49c0.21-0.01-0.09-0.28 0 0zm-1.34 2.52c-0.83 0.67-0.33 0.47 0.33 0.07 1.02-0.94 0.16-0.23-0.33-0.07zm3.51-1.4c0.54-0.25 1.84-1.68 0.47-0.78-1.54 0.96-2.99 2.05-4.63 2.83-0.08 1.47 1.52-0.39 2.09-0.65 0.78-0.39 1.37-0.99 2.07-1.4zm-1.27 4.5c-0.71 0.21-2.14 1.74-2.33 1.08 1.04-0.63 2.04-1.27 3.02-1.97 1.35-0.93 2.7-1.86 4.1-2.7 0.57-0.66 2.44-1.44 2.32-1.74-2.28 1.37-4.47 2.87-6.71 4.3-0.79 0.31-2.33 1.59-2.65 1.23 2.12-1.3 4.27-2.57 6.19-4.17 0.62-0.44 1.46-1.14 1.86-1.55-1.32 0.37-2.28 1.6-3.48 2.26-1.52 1.05-3.08 2.1-4.67 3.02-0.56-0.18 1.1-0.98 1.37-1.33 1.52-1.02 2.98-2.1 4.48-3.15 1.12-0.6 0.28-1.1-0.48-0.47-1.91 1.54-3.7 3.33-5.97 4.36 0.44 0.75-0.28 2.42 0.43 2.61 0.85-0.57 1.7-1.16 2.52-1.77zm6.37-5.34c0.32 0.06 0.18-0.21 0 0zm-5.93 0.78c0.57-0.15 0.14-0.47 0 0zm-1.27 0c0 0-0.17 0.09-0.17 0.09 0 0 0.17-0.09 0.17-0.09zm0.62 0.4c0.51-0.07 0.06-0.3 0 0zm-1.24 0.09c0.26-0.33-0.39-0.21 0 0zm11.28 0.06c0.39-0.24-0.17-0.15 0 0zM64.92 10.26c0.52-0.07 0.02-0.38 0 0zm-0.65 0.28c0.63 0.13 0.62-0.62 0 0zm8.14 1.86c0.85-0.56 2.13-0.97 2.59-1.81-1.2 0-2.63 1.22-3.62 1.91-1.2-0.06 0.57 0.75 0.61 0.27 0.22 0.09 0.31-0.24 0.41-0.36zm0.99 0.44c0.63-0.72 2.04-0.94 2.31-1.74-1.1 0.27-2.09 1.03-3.01 1.69-0.22 0.74 0.42-0.06 0.7 0.05zm2.36-0.06c0.38-0.31 2.09-1.27 0.67-0.82-0.92 0.69-2.04 1.12-2.87 1.92 0.66-0.04 1.43-0.9 2.19-1.1zM63.99 11.94c-0.35 0.05 0.25 0.13 0 0zm11.65 0c-0.3 0.24 0.23-0.04 0 0zm-0.5 0.28c0.5 0.09 0.54-0.52 0 0zm0.06 1.68c0.48-0.47 2.31-1.47 2.06-1.58-1.21 0.73-2.49 1.36-3.68 2.14 0.19 0.81 1.2-0.76 1.62-0.56zm-2.3-0.34c0.68-0.07 1.86-1.04 1.91-1.18-0.64 0.38-1.37 0.65-1.91 1.18zM63.09 12.5c-0.5 0.14 0.14 0.01 0 0zm7.3 0c-0.6-0.24-0.16 0.16 0 0zm3.36 3.08c1.01-0.64 2.09-1.15 3.1-1.79 0.7-0.15 1.99-1.58 0.57-0.84-1.04 0.74-2.18 1.31-3.31 1.9-0.24 0.16-0.44 0.44-0.36 0.74zM66.66 13.34c0.6 0.22 1.5-1.1 0.43-0.21-0.13 0.09-0.28 0.16-0.43 0.21zm1.96 4.07c1.25 0.16 2.75 0.3 3.83-0.43 0.97-0.99 0.48-2.61-0.63-3.27-1-0.74-2.47-0.72-3.54-0.44 0.43 1.34 0.12 2.77 0.34 4.15zm3.51-4.13c0.87 0.5 0.32-0.69 0 0zm2.8 2.36c1.2-0.83 2.64-1.31 3.72-2.29-1.72 0.75-3.26 1.86-4.96 2.64-0.18 0.87 0.99-0.39 1.24-0.34zm-11.49 0.84c1.29-0.58 2.31-1.59 3.54-2.26 0.68-0.35 0.82-1.1-0.04-0.47-1.53 0.78-2.75 2.04-4.27 2.83-0.18 0.82 0.57 0.1 0.78-0.09zm9.47-2.73c-0.01-0.4-0.42-0.04 0 0zm-6.93 0.09c0.41 0 0.34-0.41 0 0zm12.89 0.12c0.37 0.35 0.17-0.44 0 0zm-5.56 0.22c0.28-0.35-0.33-0.3 0 0zm-5.59 0c-1.33 1.08-2.93 1.76-4.31 2.77-0.94 0.14-0.73 1.35 0.09 0.49 1.19-0.54 2.08-1.53 3.27-2.06 0.43-0.26 1-0.61 0.95-1.19zm10.16 1.18c0.67-0.01 1.77-1.19 0.54-0.34-0.18 0.12-0.36 0.24-0.54 0.34zm-4.41-0.56c0.35 0.07-0.18-0.5 0 0zm-10.87 3.79c1.61-0.76 2.98-1.93 4.54-2.8 0.07 1.11-1.69 1.29-2.38 1.97-1.22 0.63-2.22 1.6-3.51 2.1-0.64 0.24-0.58 1.08 0.07 0.41 2.12-1.08 4.21-2.19 6.25-3.41 0.59-0.37 0.36-2.5-0.57-1.25-1.77 1.21-3.62 2.3-5.44 3.41-0.62 0.08-1.15 1.18-0.26 0.43 0.46-0.25 0.94-0.48 1.3-0.87zM77.38 15.14c-0.41 0-0.06 0.35 0 0zm-1.34 1.55c0.45-0.51 1.57-0.58 1.61-1.24-1.72 0.98-3.4 2.04-5.11 3.04 1.09-0.23 2.01-1.26 3.15-1.59 0.16 0.15 0.38-0.62 0.36-0.2zm-1.3 1.12c-1.98 1.06-3.85 2.3-5.75 3.51 1.47-0.07 2.42-1.47 3.8-1.85 1.09-0.7 2.22-1.29 3.32-1.97 0.81-0.48 2.24-1.28 2.49-1.72-1.19 0.85-2.63 1.25-3.86 2.03zm0.62-1.52c0.55-0.05 0.6-0.6 0 0zm-0.71 0.4c0.81 0 0.75-0.82 0 0zm1.96-0.22c0.34 0.01 0.04-0.3 0 0zm-2.58 0.5c0.72 0.14 0.56-0.59 0 0zm-0.28 2.95c1.68-0.64 3.23-1.56 4.76-2.49 1.22-0.9-0.73-0.12-1.1 0.37-1.2 0.73-2.48 1.35-3.66 2.12zM71.07 19.02c0.81-0.83 1.97-1.14 2.8-1.91-1.06 0.35-2.06 1.14-3.09 1.65-1.52 0.86-3.03 1.73-4.53 2.62 1.26 0.26 2.1-0.78 3.12-1.32 0.56-0.27 1.15-1.03 1.7-1.04zm6.52-1.83c0.44-0.15-0.13-0.26 0 0zm-0.34 0.22c0.3-0.2-0.16-0.07 0 0zM76.04 18.09c0.63-0.34 1.07-0.68 0.19-0.18-0.09 0.04-0.14 0.1-0.19 0.18zm-14.79 3.63c1.39-0.35 2.47-1.37 3.74-2 0.9-0.69 2.15-1.05 2.77-2.01-2.22 1.24-4.49 2.46-6.51 4.01zm17.46-3.85c0.33 0.03 0.07-0.17 0 0zm-12.33 3.01c1.12-0.57 2.19-1.24 3.24-1.9 0.66-0.15 1.43-1.33 0.39-0.58-1.54 1.09-3.24 1.93-4.81 2.98 0.47 0.16 0.83-0.27 1.18-0.5zm2.17-2.45c0.43-0.2-0.31-0.41 0 0zm0.44-0.34c-0.56-0.22-0.17 0.46 0 0zm-8.29 0.28c-0.56 1.53 2.34-0.54 0.67-0.06-0.22 0.03-0.44 0.07-0.67 0.06zm1.62 2.17c1-0.82 2.26-1.25 3.22-2.08-0.25 0.05-1.77 0.97-2.54 1.3-0.72 0.57-2.43 0.73-2.31 1.78 0.54 0.63 0.45-0.89 1.26-0.8 0 0 0.22-0.11 0.22-0.11 0 0 0.16-0.08 0.16-0.08zm12.98-2.02c0.42 0.06 0.3-0.46 0 0zm-2.89 2.58c1.53 0.12 2.65-1.15 3.95-1.74 0.59-0.27 2.18-1.41 0.74-0.63-1.49 0.94-3.18 1.46-4.69 2.36zm-4.63-2.67c-1.64 1.2-3.47 2.1-5.19 3.17 1.77-0.45 3.21-1.64 4.77-2.53 0.1-0.29 1.18-0.35 0.42-0.64zm4.5 0.28c0.54-0.14-0.28-0.32 0 0zm2.58 2.05c1.37-0.28 2.82-0.81 3.54-2.09-0.92 0.67-2.27 1.3-3.35 1.96 0 0-0.18 0.13-0.18 0.13zm-0.06-1.96c0.44 0.16 0.34-0.45 0 0zm-5.19 1.52c-0.5 0.15-2.21 1.4-0.88 0.75 1.06-0.8 2.28-1.36 3.35-2.13-0.48 0.13-1.85 0.83-2.47 1.39zm4.47-1.12c0.66-0.19 0.67-0.58 0.05-0.05 0 0-0.05 0.05-0.05 0.05 0 0 0 0 0 0zm-0.28 0.16c0.33-0.02 0.06-0.36 0 0zm-0.56 0.28c0.5 0.09 0.68-0.56 0 0zm-0.62 0.4c0.98-0.33 0.39-0.56 0 0zm0.78 0.09c-0.27-0.16-0.29 0.4 0 0zm-1.55 0.4c0.98-0.47 0.36-0.54 0 0zm-0.34 0.06c0.48-0.01 0.12-0.13 0 0zm-6.12 0.22c0.52-0.27-0.22-0.17 0 0zm5.84 0c0.53-0.07 0.16-0.25 0 0zm-7.24 0.62c0.66 0.06 1.77-0.94 0.51-0.23-0.17 0.08-0.34 0.16-0.51 0.23zm7.36-0.28c0.79 0.15 0.95-0.73 0 0z" class="a"/><path d="M83.4 10.45C83.42 10.29 82.71 10.38 82.71 10 81.91 8.98 84.32 8.68 84.8 7.89 85.86 7.59 86.71 6.86 87.77 6.56 88.91 6.34 90.1 6.22 91.2 6.66c1.31 0.27 2.37 1.19 3.42 1.97 0.79 0.39 1.42 0.62 0.61 1.5-1.26 1.64-2 3.62-3.19 5.32 0.72-0.73 1.11-1.71 1.72-2.52 0.61-0.98 1.14-2.15 1.89-2.94 0.34 0.21 0.37-0.73 0.48 0.12 0.04 1.25-0.19 2.51-0.01 3.77-0.11 1.21 0.05 2.41 0.08 3.61 0.01 1.63 2.58-0.43 1.77 1.39-0.15 1.13 0.42 2.78-0.88 3.38-1.6 0.01-3.17-0.58-4.78-0.39-1.08 0.38-1.2-0.71-0.67-1.4-0.46-0.05-0.62 0.97-1.1 0.52-1.55 1.29-3.77 1.26-5.61 0.75-0.9 0.48-0.92-0.92-1.68-1.2-1.72-2.18-0.76-5.57 1.47-7.01 1.38-0.95 3.23-1.77 4.85-0.91 0.72 0.27 2.55 1.24 1.94-0.4-0.41-1.27-1.89-1.97-3.17-1.82-1.45-0.24-2.51 1.65-3.79 0.51-0.36-0.22-0.76-0.32-1.15-0.44zm6.24-3.54c-0.25 0.62-1.19 1.79-1.2 1.96 0.24-0.56 1.54-1.62 1.2-1.96zm-0.71 0c-0.17 0.51-1.23 1.99-0.87 1.8 0.23-0.55 1.15-1.21 0.88-1.79zm-2.2 2.95c0.63-0.81 1.36-1.92 1.56-2.79-0.5 0.94-1.07 1.84-1.56 2.79zm-1.12 0.99c0.85-0.82 1.14-2.04 1.84-2.97 0.35-0.7 0.05-0.72-0.16-0.06-0.56 1.01-1.32 1.92-1.68 3.03zm2.83-1.12c0.08 0.34 1.6 0.22 0.79-0.14 0.26-0.79 1.18-1.45 1.31-2.15-0.78 0.56-1.03 1.96-1.79 2.24-0.2-0.63 1.44-2.19 0.26-0.96-0.27 0.28-0.52 0.61-0.57 1.01zm1.96-1.34c-0.38 0.44-0.82 1.57-0.17 0.51 0.31-0.34 1.36-2.06 0.49-0.92 0 0-0.16 0.2-0.16 0.2 0 0-0.16 0.2-0.16 0.2zM91.23 8.15C90.91 8.54 89.73 9.98 90.41 9.9 90.75 9.24 91.9 7.8 91.57 7.61 91.44 7.78 91.33 7.96 91.23 8.15ZM89.86 7.78c0.16-0.17-0.13-0.16 0 0zm2.39-0.15c-0.28 0.84-1.74 2.21-1.33 2.69 0.47-0.87 1.35-1.74 1.44-2.68 0 0-0.11-0.01-0.11-0.01zm-2.64 0.34c0.29 0.01-0.01-0.29 0 0zm1.96 2.14c-0.7 0.66 0.04 0.69 0.19-0.05 0.34-0.48 1.19-1.71 0.97-1.86-0.36 0.65-0.72 1.31-1.16 1.91zm-6.99 0.25c0.38-0.48 1.11-1.7 1.03-1.88-0.35 0.62-0.77 1.21-1.03 1.88zm7.36 0.22c-0.77 0.9 0.4 0.41 0.38-0.32 0.3-0.48 1.49-1.8 0.91-1.89-0.38 0.77-0.82 1.49-1.29 2.21zm0.99-0.37c-0.36 0.44-1.24 1.46-0.73 1.86 0.36-0.99 1.85-2.82 1.61-3.22-0.32 0.44-0.6 0.91-0.88 1.37zM88.06 9.42c0.35-0.34-0.16-0.17 0 0zm4.19 4.35c-0.1 0.81-1.23 1.34-0.9 2.21 0.6-1.48 1.74-2.67 2.28-4.17 0.36-0.64 1.53-1.97 1.15-2.33-0.68 1.1-1.23 2.27-1.98 3.33-0.19 0.32-0.37 0.64-0.55 0.96zm0.37-1.3c0.27-0.83 1.61-2.7 1.46-2.74-0.54 1.12-1.93 2.48-1.92 3.49 0.16-0.23 0.16-0.65 0.46-0.74zM87.6 9.92c0.52-0.09 0.14-0.67 0 0zm7.58 2.3c-0.39 0.87-1.49 2.34-1.52 2.79 0.64-1.01 1.22-2.07 1.8-3.12 0.37-0.94-0.08-0.06-0.25 0.28 0 0-0.03 0.05-0.03 0.05 0 0 0 0 0 0zm-3.26 4.16c0.2 1.05 1.04-1.2 1.33-1.57 0.59-0.95 1.17-2.01 1.61-2.98-0.95 1.53-1.86 3.1-2.94 4.55zm-0.31 3.01c0.53-1.05 1.31-1.96 1.85-3.02 0.59-1.2 1.63-2.16 2.01-3.47 0.6-0.35-0.34-0.59-0.24 0.21-1.18 2.28-2.69 4.36-3.89 6.62 0.11-0.1 0.22-0.2 0.28-0.34zm-7.98 0.96c1.1 0.96 0.97-1.49 1.56-2.02 0.84-1.88 1.81-3.71 2.66-5.59-1.15 1.15-1.56 2.8-2.21 4.25-0.6 0.96-0.87 2.82-1.69 3.23 0.27-1.2 0.98-2.29 1.41-3.45 0.32-0.95 1.13-2.55 1.25-3.08-1.21 2.12-2.06 4.42-2.98 6.67zm4.82-6.68c-0.38 0.69-1.2 2.12-1.09 2.47 0.38-0.95 1.28-2.49 1.41-3.06-0.11 0.19-0.22 0.39-0.32 0.59zm0.31 0.53c-0.47 0.42-0.68 1.79-0.08 0.6 0.3-0.37 1.16-2.44 0.35-1.16-0.09 0.19-0.17 0.38-0.26 0.56zm0.19 0.9c0.39-0.36 1.28-1.95 0.89-1.69-0.32 0.55-0.61 1.12-0.89 1.69zm-3.23-0.43c0.22-0.43 1.08-1.89-0.04-1.12-1.1 1.29-1.48 2.99-2.26 4.46-0.33 0.55-0.38 1.94 0.05 0.6 0.48-1.22 1.05-2.4 1.59-3.58-0.04-0.72 1.36-1.99 0.69-0.6 0 0-0.03 0.13-0.03 0.13 0 0 0.01 0.12 0.01 0.12zm4.69-1.24c-0.19 0.47-1.28 2.21-0.35 0.98 0.06-0.21 0.82-0.94 0.35-0.98zm-4.6 4.54c0.97-1.21 1.27-2.81 2.11-4.1 0.07-0.59-0.57 0.98-0.71 1.17-0.47 0.97-0.9 1.97-1.4 2.93zm4.19-2.86c0.84 0.35 1.36-2.34 0.59-0.9-0.21 0.3-0.4 0.6-0.59 0.91zm2.3 4.69c0.82-1.33 1.58-2.69 2.4-4.02 0.16-0.54 1.02-1.75 0.81-1.83-0.87 1.14-1.5 2.45-2.35 3.61-0.32 0.63-1.44 1.99-1.26 2.17 0.12-0.12 0.31-0.05 0.4 0.06zm-1.21-5.09c-0.55 0.47-0.07 1.01 0.06 0.17 0.52-0.39 0.66-1.61 0.11-0.53-0.06 0.12-0.11 0.24-0.17 0.36zm3.67 1.71c0.17-0.38 1.33-1.65 0.78-1.44-0.27 0.47-0.54 0.95-0.78 1.44zm-9.23-1.4c0.35-0.34-0.26-0.16 0 0zm-1.77 1.49c0.12-0.63 0.69-1.59 0.07-0.53-0.41 0.39-1.01 2.5-0.42 1.11 0.08-0.21 0.18-0.41 0.34-0.57zm-0.62 0.09c0.31-0.5 1.01-2.14 0.19-0.8-0.15 0.24-0.25 0.53-0.19 0.81zm2.08-1.06c0.34-0.38 0.25-0.77 0 0zm8.08 0.25c0.62-1.1-0.17-0.28 0 0zm-8.29 0.44c0.44-0.59-0.02-0.87 0 0zm3.29 2.3c1.18 0.17 3.3-0.78 2.59-2.2-0.7-1.1-2.33-0.82-3.13-0.04-0.59 0.76-0.37 1.84 0.54 2.24zm7.33-2.55c0.41-0.22-0.19-0.29 0 0zm-3.57 1.77c0.38-0.43 1.39-2.43 0.58-1.05-0.24 0.32-0.54 0.64-0.58 1.06zM84.68 16.6c0.31-0.06 0.11-0.36 0 0zm8.05 3.32c-0.37 0.43-0.95 1.79-0.1 0.65 0.86-1.31 1.85-2.56 2.54-3.96-0.93 1-1.63 2.21-2.44 3.31zm2.89-3.11c0.28-0.17-0.07-0.37 0 0zM84.52 16.94c0.31-0.1 0.18-0.48 0 0zm8.76 3.63c0.5-0.97 1.2-1.83 1.77-2.76 0.51-0.75 0.37-0.85-0.1-0.08-0.8 1.16-1.5 2.39-2.41 3.46-0.15 0.71 0.57-0.64 0.75-0.62zm-8.79-3.57c-0.29 0.26 0.26 0.21 0 0zm7.27 0.4c0.22-0.21-0.32-0.08 0 0zm-8.2 2.05c0.22-0.61 0.84-1.79 0.75-1.98-0.28 0.81-0.79 1.85-1.06 2.35 0.24 0.52 0.11-0.33 0.31-0.37zm1.55 1.37c-0.15 0.76 0.79-0.89 0.81-1.21 0.25-0.46 1.08-1.96 0.78-1.78-0.48 1.02-1.08 1.98-1.58 2.99zm10.16-2.73c0.26-0.01 0.15-0.44 0 0zm-9.75 0.53c-0.36 0.43-0.39 1.12-0.03 0.24 0.26-0.45 0.35-0.99 0.03-0.24zm-2.73-0.43c-0.12 0.49 0.41-0.25 0 0zm12.3 0.28c0.43-0.36-0.06-0.29 0 0zm-9.23 2.14c-0.58 0.72 0.12 0.81 0.25 0.03 0.26-0.51 1.12-2 0.84-2.06-0.3 0.71-0.76 1.34-1.1 2.03zm4.54-0.78c0.48-0.41 1.19-2.15 0.38-0.73-0.14 0.24-0.27 0.48-0.38 0.73zm4.35-0.19c0.42-0.44 1.16-1.78 0.32-0.63-0.15 0.18-0.3 0.38-0.32 0.63zM90.48 18.62c-0.32 0.73-1.66 2.15-1.24 2.46 0.52-0.78 1.02-1.81 1.37-2.6 0 0-0.13 0.15-0.13 0.15zm4.44 0c-0.25 0.25 0.04 0.08 0 0zm-0.15 1.55c-0.39 0.26-1.01 1.68-0.25 0.62 0.42-0.49 1.5-2.01 1.27-1.97-0.32 0.47-0.71 0.87-1.02 1.35zm1.15-0.5c0.33-0.51 0.82-1.26 0.15-0.39-0.09 0.11-0.15 0.25-0.15 0.39zm-9.04 0.25c-0.45 0.4-0.79 2.35-0.14 0.95 0.21-0.54 0.98-2.01 0.7-2.02-0.21 0.35-0.31 0.75-0.56 1.07zm0.78 0c0.44-0.55 0.44-1.17 0.06-0.28-0.05 0.08-0.04 0.19-0.06 0.28zm0.28 0.31c-0.32 0.43-0.84 1.48-0.2 0.53 0.41-0.38 1.31-2.35 0.45-0.97-0.09 0.14-0.17 0.29-0.25 0.45zm1.02-0.65c0.53-0.39 0.11-0.63 0 0zm0.47 0c0.25 0-0.04-0.33 0 0zm4.82 0.06c0.29-0.1 0.09-0.38 0 0zm-9.16 0.03c0.13-0.25-0.22-0.05 0 0zm10.03 1.58c0.41-0.29 1.81-2.23 0.71-0.94-0.25 0.3-0.48 0.62-0.71 0.94zm-6.93 0.12c0.57-0.21 1.49-2.33 0.62-0.95-0.22 0.31-0.45 0.61-0.61 0.95zm-3.76-0.34c0.39-0.29 0.78-1.92 0.25-0.65-0.07 0.22-0.15 0.44-0.25 0.65zm6.8-0.96c0.29-0.34-0.2-0.33 0 0zm3.11 0c0.51-0.22 0.2-0.43 0 0zm-4.35 0.53c0.57-0.46 0.1-0.84 0 0zm5.59-0.53c0 0-0.11 0.08-0.11 0.08 0 0 0.11-0.08 0.11-0.08zm-1.43 0.4c0.44-0.35-0.06-0.46 0 0zm-3.66-0.06c0.47 0.04 0.28-0.54 0 0zm6.37 0.87c-0.24 1.06 1.19-2.06 0.31-0.49-0.12 0.15-0.23 0.31-0.3 0.49zm-0.74 0.31c0.37-0.29 1.13-1.79 0.37-0.62-0.13 0.2-0.26 0.41-0.37 0.62zm-2.55-0.56c0.68-0.41 0.48-0.88 0 0zm1.96 0.5c0.59-0.29 0.93-1.45 0.23-0.41-0.1 0.12-0.18 0.27-0.23 0.42zm-0.93-0.16c0.39-0.39-0.06-0.23 0 0zm2.73 0.56c0.28-0.3-0.09-0.57 0 0z" class="a"/><path d="m109.22 6.16c1.05 0.41 2.43 0.1 3.37 0.34 0.04 1.5 0.08 3.01 0.02 4.51-1.11 0.38-2.86 0.6-3.72 0.07-0.37-1.53-2.2-1.85-3.48-1.36-0.66 0.13-0.81 0.8-0.57 1.02-0.25 1.21 1.7 1.58 2.63 1.71 1.77 0.09 3.4 0.82 4.96 1.59 0.51 1.41 1.3 2.93 0.64 4.44-0.65 1.22-1.54 2.56-2.91 2.98-1.32 0.58-2.88 1.17-4.26 0.42-0.82-0.1-2.03-1.49-2.01-1.54 0.59 1.28-0.61 2.38-1.85 1.82-1.64-0.06-1.39-1.92-1.39-3.05-0.03-1.28-0.21-3.31 1.69-2.74 0.91 0.17 1.8-0.46 2.05 0.69 0.36 0.99 1.18 1.73 2.27 1.84 1.3 0.56 3.46-1.1 2.03-2.31-1.08-1.09-2.79-0.87-4.14-1.41-1.31-0.57-3.02-0.92-3.63-2.37-0.6-1.34-0.45-2.93-0.03-4.29 0.43-1.17 1.58-1.74 2.68-2.15 1.4-0.38 2.94-0.41 4.34-0.04 0.96 0.2 1.47 1.57 1.31-0.18zm2.24 4.54c0.77 0.31 0.96-1.13 0.17-0.36-0.52 0.08-0.94 0.83-0.17 0.36zm-6.65-3.7c0.42 0.37 1.23-0.84 0.21-0.02-0.07 0.01-0.14 0.02-0.21 0.02zm1.34 0.22c-1.28 0.2-2.24 1.2-3.4 1.7-0.53 0.25-2.06 1.08-1.51 1.46 1.08-0.55 2.09-1.25 3.11-1.91 0.69-0.45 2.18-1.31 2.27-1.79-0.21 0.09-0.49 0.26-0.46 0.54zm-2.27-0.22c0.81 0.12 0.54-0.66 0 0zm3.42-0.15c0.22 0.55 0.55-0.33 0 0zm0.22 0.25c-1.09 0.17-1.77 1.21-2.76 1.63-1.18 0.76-2.43 1.42-3.56 2.26-0.01 0.89 1.32-0.96 1.86-1.03 1.14-0.54 2.22-1.3 3.21-2.03 0.32-0.4 0.82-0.57 1.25-0.83zm-5.22 0.99c0.62-0.07 1.92-1.36 0.63-0.48-0.24 0.11-0.48 0.25-0.63 0.48zm2.36-0.99c-1.15 0.93-2.72 1.33-3.6 2.58 0.93-0.76 2.16-1.18 3.01-1.89 0.18-0.14 0.88-0.35 0.59-0.68zm4.94 0.12c0.41 0.41 0.64-0.37 0 0zm-1.93 1.96c1.01-0.33 2.35-1.38 2.91-1.71-1 0.52-1.97 1.09-2.91 1.71zm3.11-1.3c-0.42 0.39-2.09 1.2-1.84 1.3 0.59-0.46 2.41-1.14 2.23-1.61-0.15 0.08-0.25 0.21-0.39 0.31zm-2.48 0.44c0.64-0.22 1.01-1.02 0.23-0.26-0.1 0.06-0.15 0.17-0.23 0.26zm1.65 0.78c-0.08 0.4-1.84 1.22-0.6 0.81 0.82-0.62 2.87-1.35 2.75-2.14-0.73 0.42-1.41 0.93-2.15 1.33zm-3.42-0.15c0.59-0.1 1.81-1.49 0.63-0.52-0.21 0.17-0.42 0.34-0.63 0.52zm-0.15-0.47c0.37 0.04 0.08-0.43 0 0zm-1.55 0.93c0.63 0.04 2.1-1.38 0.74-0.46-0.25 0.16-0.5 0.31-0.74 0.47zm7.27-0.62c0.55-0.12-0.12-0.28 0 0zm-0.4 0.16c0.48-0.01 0.23-0.29 0 0zm-5.37 0.09c0.32 0.07 0.16-0.21 0 0zm5 0.16c-0.43 0.44-1.97 1.02-1.83 1.26 0.48-0.39 1.9-1.04 1.83-1.26zm-1.46 1.71c0.71-0.32 2.24-1.22 2.19-1.54-0.73 0.51-1.6 0.85-2.18 1.54zm-8.26 0.75c0.53 0.54 1.81-1.08 0.63-0.21-0.14-0.37 1.69-0.92 1.92-1.57-0.87 0.56-1.76 1.1-2.55 1.77zm1.65-0.25c0.51 0.13 0.28-0.63 0 0zm0.81 0c-0.53 0.46-2.3 1.23-2.1 1.53 0.74-0.46 1.48-0.92 2.1-1.53zm-2.89 0.93c1.11-0.33-0.37-1.04 0 0zm1.15 0.93c0.58-0.41 1.92-1.16 2.03-1.33-0.72 0.37-1.43 0.78-2.03 1.33zm2.52-1.09c-0.53 0.57-2.19 1-2.09 1.51 0.69-0.27 2.01-1.12 2.09-1.51zm-1.15 1.74c-0.38 0.35 1.46-0.91 1.7-1.26-0.62 0.33-1.23 0.73-1.7 1.26zm0.47 0.22c-0.33 0.6 1.17-0.49 1.41-0.69 1.14-1.04-0.77 0.06-1.1 0.42 0 0-0.16 0.13-0.16 0.13 0 0-0.15 0.14-0.15 0.14zm1.09 0.06c-0.03 0.15 1.5-0.92 1.69-1.13-0.61 0.3-1.15 0.72-1.68 1.13zm0.16 0.53c0.86-0.19 2.31-1.4 2.46-1.54-0.9 0.37-1.67 0.99-2.46 1.55zm2.14-0.68c0.64-0.33 1.06-0.78 0.2-0.21 0 0-0.1 0.1-0.1 0.1 0 0-0.09 0.11-0.09 0.11zm-0.5 1.02c0.77-0.32 2.27-1.33 2.33-1.6-0.93 0.26-1.71 0.89-2.33 1.6zm0.87 0.28c0.57-0.25 1.75-1.39 1.76-1.33-0.62 0.32-1.51 0.61-1.76 1.33zm2.73-1.43c-0.66 0.4-1.95 1.39-2.01 1.66 0.82-0.1 2.19-1.28 2.21-1.59 0 0-0.09-0.05-0.09-0.05 0 0-0.11-0.02-0.11-0.02zM106.2 14.89c0.55 0 1.6-1.27 0.52-0.45-0.2 0.11-0.38 0.26-0.52 0.45zm3.63 0.68c0.5-0.24 2.08-1.54 0.75-0.67-0.38 0.16-1.85 1.09-1.27 1.12 0.19-0.13 0.33-0.31 0.52-0.45zm1.99-1.02c-0.55 0.72-2.74 1.67-2.15 2.27 0.56-0.72 2.63-1.28 2.16-2.27 0 0-0.01 0-0.01 0 0 0 0 0 0 0zm-0.59 2.08c0.5-0.34 1.71-1.78 0.49-0.77-0.58 0.53-2.38 1.29-1.97 1.89 0.54-0.3 1.02-0.71 1.48-1.13zm0.99-0.22c-1.78 1.44-3.61 2.82-5.47 4.16-0.72-0.4-1.78 0.94-0.43 0.46 1.15-0.64 2.14-1.52 3.28-2.18 0.93-0.7 1.76-1.44 2.62-2.21 0.33-0.24 0.53-0.96 0.1-0.33 0 0-0.1 0.1-0.1 0.1zm-5.87 5.09c1.53-0.62 2.75-1.79 4.13-2.67 0.56-0.71 2.03-1.36 2.15-2-0.87 0.66-1.65 1.48-2.59 2.09-1.21 0.89-2.46 1.72-3.69 2.58zm-5.31-3.32c-0.22 0.54-0.05 0.28 0.04 0.78 0.77-0.55 1.88-1.14 2.37-1.81-0.88-0.08-1.62 1.82-2.28 1.07 0.37-0.35 2.09-1.58 0.74-0.82-0.29 0.26-0.52 0.59-0.86 0.79zm0.09-0.99c-0.36 0.68 0.67-0.21 0 0zm1.43 1.31c0.75 0.07 2.09-1.51 0.7-0.56-0.25 0.16-0.5 0.34-0.7 0.56zm4.66 3.17c1.77-0.19 2.76-1.91 4.14-2.83 0.48-0.24 1.9-1.79 0.76-0.83-1.53 1.36-3.22 2.5-4.9 3.66zm-2.95-3.48c-0.92 0.82-2.79 1.55-3 2.58 0.73-0.8 1.53-1.35 2.48-1.84 0.24-0.13 0.88-0.39 0.53-0.74zm-1.77 0.47c-0.3 0.2-1.91 1.28-0.82 0.73 0.22-0.18 2.07-1.18 0.82-0.73zm9.16 0.62c0.52-0.37 0.94-0.82 0.17-0.23-0.1 0.05-0.13 0.13-0.17 0.23zM104.8 18.65c-1.04 0.73-2.13 1.37-3.05 2.22-1.35 0.75 0.73 0.21 1-0.36 0.5-0.7 1.99-1.16 2.05-1.87zm0.5 0.47c-0.62 0.07-1.76 1.52-0.47 1.09 0.35-0.33 1.57-0.89 0.48-1.09zm-4.32 0.16c-0.33 0.13 0.26 0.18 0 0zm0 0.47c0.36-0.25-0.18-0.52 0 0zm5.53-0.31c-0.25 0.39-2.11 1.15-1.25 1.32 0.44-0.33 1.95-1.12 1.5-1.24 0 0-0.13-0.01-0.13-0.01 0 0-0.12-0.07-0.12-0.07zm-4.16 1.86c0.5-0.31 1.15 1.14 1.09-0.14 0.13-1.3-0.67-0.08-1.09 0.14zm7.39-0.31c0.16-0.17-0.13-0.16 0 0zm-0.53 0.22c0.38 0.12 0.28-0.3 0 0z" class="a"/><path d="m120.27 15.76c0.26 1.3 1 2.87 2.53 2.92 1.5 0.21 3.31-0.16 4.12-1.57 1.32-0.65 2.6 0.78 3.94 0.84 1.49 1.17-1.11 2.31-1.97 2.96-2.12 1.25-4.65 1.42-7.04 1.16-0.72-0.37-1.8-0.12-2.25-0.55-0.71-0.24-1.31-0.89-1.95-1.7-0.49-0.68-1.16-0.98-1.1-1.85-0.58-0.3-0.25-1.16-0.84-0.88-0.25-0.33 0.68-1.1-0.19-0.78 0.37-1.41-0.2-2.99 0.47-4.36 0.53-1.92 1.89-3.52 3.55-4.58 1.7-0.92 3.68-1.65 5.63-1.14 1.47 0.09 2.7 0.89 3.85 1.74 1.47 1.25 2.06 3.17 2.5 4.98-0.37 0.64 1.12 0.7 0.08 1.08 0.35 0.75-0.46 2.53-0.89 1.19-1.47-0.27-2.98 0.08-4.46-0.06-1.41-0.02-2.78-0.1-4.19 0.01-0.56 0.18-1.45 0.08-1.8 0.61zm4.07-8.85c-0.5 0.78-2.31 2.13-2.13 2.38 0.81-0.75 2.29-1.71 2.57-2.45-0.15 0.01-0.29 0.11-0.44 0.07zm1.27 0c-0.79 0.65-2.5 1.99-2.63 2.4 1.04-0.68 1.97-1.52 2.9-2.32 0 0-0.06-0.06-0.06-0.06 0 0-0.21-0.02-0.21-0.02zm-3.48 1.21c0.7 0.39 2.08-1.73 0.78-0.89-0.33 0.23-0.55 0.57-0.78 0.89zm4.16-0.9c-0.58 0.62-2.19 1.58-2.23 1.87 0.66-0.65 1.91-1.19 2.23-1.87zm-5.75 1.4c-1.18 1.24-2.51 2.34-3.7 3.55-0.55 0.47-0.2 1.01 0.19 0.23 1-1.04 2.13-1.95 3.2-2.92 0.39-0.56 1.57-1.38 1.46-1.84-0.55 0.1-0.77 0.65-1.16 0.98zm4.78 1.02c0.53-0.46 2.14-1.44 1.84-1.82-0.67 0.48-2.02 1.11-2.07 1.81 0 0 0.23 0.01 0.23 0.01zm0.68 0.44c0.79-0.29 2.08-1.55 2.24-1.67-0.88 0.37-1.45 1.18-2.24 1.67zm-9.75 3.63c-0.14 1.17 0.86-0.32 1.09-0.62 1.54-1.31 3.02-2.68 4.42-4.13-0.69 0.3-1.95 1.81-2.9 2.51-0.87 0.76-1.74 1.5-2.61 2.24zm10.25-3.11c0.7-0.43 1.93-1.53 2.18-1.76-0.8 0.48-1.65 0.96-2.18 1.76zm0.19-1.65c0.22 0.14 0.11-0.28 0 0zm-9.23 1.58c1.2-0.71 2.17-1.8 3.08-2.78-1.11 0.82-2.22 1.7-3.08 2.78zm10.41-0.4c-0.71 0.14-1.45 1.62-0.4 0.53 0.36-0.32 1.87-1.19 1.43-1.34-0.39 0.21-0.68 0.55-1.03 0.81zm-6.06-0.43c0 0-0.15 0.05-0.15 0.05 0 0 0.15-0.05 0.15-0.05zm7.89 0.12c-0.49-0.54-0.19 0.8 0 0zm-6.34-0.06c-1.1-0.09-3.39 1.57-2.13 2.41 1.54 0.1 3.09 0.18 4.62 0.16 1.37-0.61-0.39-2.46-1.41-2.44-0.35-0.1-0.72-0.15-1.09-0.12zm6.03 0.93c0.57-0.27 0.64-0.62 0 0zm-11.12 2.33c-0.52 0.45-2.18 1.69-1.75 1.84 1.49-1.19 2.92-2.47 4.19-3.89 0.76-1.29-0.74 0.66-1.2 0.94-0.41 0.37-0.83 0.74-1.25 1.11zm9.07-1.15c0.66-0.13 1.2-1.03 1.51-1.33-0.53 0.4-0.98 0.91-1.51 1.33zM117.32 10.76c0.6 0.03-0.01-0.26 0 0zm10.06 2.11c-0.36 0.51-2.12 1.18-1.71 1.52 1.02-0.54 1.76-1.46 2.75-2.06 0.48-0.39 1.61-1.14 1.62-1.38-1 0.45-1.72 1.37-2.66 1.92zm1.49-1.65c0.33-0.22 0.24-0.32 0 0zm1.43 0.16c-1.25 1.03-2.59 1.93-3.86 2.94 1.28-0.43 2.2-1.54 3.36-2.21 0.18-0.17 0.74-0.41 0.51-0.73zm-10.59 1.27c-0.97 1.17-2.99 1.96-3.29 3.39 1.01-0.57 1.69-1.8 2.7-2.51 0.43-0.31 1.97-2.32 0.79-1.12 0 0-0.12 0.15-0.12 0.15 0 0-0.07 0.09-0.07 0.09zm9.16 0.59c-0.54 0.27-2.16 1.64-0.76 0.68 0.87-0.56 1.74-1.15 2.5-1.86-0.59 0.38-1.19 0.74-1.74 1.18zm-11.28 2.36c-0.6 0.15-1.42 1.7-0.37 0.63 1.08-1.07 2.18-2.14 3.13-3.33-0.92 0.89-1.82 1.81-2.76 2.69zm4.94-2.73c-0.45 0.57-1.88 1.54-1.79 1.77 0.26-0.59 2.33-1.31 1.79-1.77zm7.55 0.37c0.36-0.23 0.55-0.74 0 0zm-8.63 0.03c0.51-0.24 0.19-0.45 0 0zm3.67 0.37c-0.68 0.19-0.97 1.23-0.15 0.48 0.38-0.28 1.93-1.57 0.66-0.82-0.17 0.11-0.34 0.23-0.51 0.34zm-3.04 0.84c0.9 0.1 1.91-1.51 2.16-1.46-0.82 0.32-1.46 0.95-2.16 1.46zm2.86-1.52c-0.37 0.48-1.69 1.07-1.51 1.43 0.34-0.11 2.38-1.32 1.51-1.43zm3.26 1.49c0.62-0.15 2.5-1.75 1.08-0.77-0.37 0.24-0.75 0.48-1.08 0.77zm-7.77-0.43c-0.56 0.35-0.58 1.01 0.1 0.31 0.6-0.54 0.91-1.23 0.07-0.44-0.05 0.05-0.11 0.09-0.16 0.13zm-0.25-0.22c0.43 0.07 0.18-0.39 0 0zm9.75 0.68c0.54 0.09 1.44-1.09 0.47-0.37-0.15 0.13-0.31 0.25-0.47 0.37zm-0.84-0.03c0.56-0.15 0.12-0.27 0 0zm1.74 0.09c0.45 0.16 0.19-0.4 0 0zm-11.4 0.96c-0.41 0.83-2.17 1.83-1.99 2.3 0.74-0.73 1.85-1.51 2.27-2.31 0 0-0.11-0.01-0.11-0.01 0 0-0.17 0.02-0.17 0.02zm-2.52 1.93c0.45-0.31 1.79-1.54 1.44-1.39-0.52 0.41-1.13 0.78-1.44 1.39zm1.15 0.28c-0.57 0.21-0.74 1.16-0.09 0.28 0.47-0.56 1.79-1.3 1.73-1.7-0.64 0.35-1 1.07-1.63 1.42zm-0.37 1.27c0.61-0.57 2.14-1.76 2.1-2.03-0.69 0.69-1.6 1.17-2.1 2.03zm1.86-1.02c0.95-0.69 0.42-0.78 0 0zm7.52 0.22c-1.11 1-2.43 1.85-3.24 3.12 0.54-0.12 1.4-1.38 2.17-1.83 0.53-0.46 1.56-1.55 1.64-1.72-0.25 0.03-0.5 0.17-0.57 0.43zm-7.52 0.47c-0.59 0.22-1.59 1.71-0.48 0.62 0.37-0.25 1.82-1.92 0.87-1.02 0 0-0.17 0.22-0.17 0.22 0 0-0.21 0.19-0.21 0.19zm8.67-0.78c-1.08 1.26-2.52 2.19-3.61 3.4 0.69-0.15 1.72-1.4 2.5-2.02 0.39-0.43 0.98-0.78 1.12-1.37zm-9.1 0.37c0.4 0.1 0.14-0.44 0 0zm9.75-0.15c-0.85 1.21-2.81 2.12-3.2 3.29 0.97-0.42 1.59-1.38 2.38-2.07 0.09-0.25 1.51-1.24 0.83-1.22zm-10 2.14c0.79 1.05 2.21-1.34 2-1.29-0.49 0.26-1.25 1.9-1.64 1.18 0.2-0.5 1.68-1.65 1.26-1.67-0.52 0.61-1.14 1.14-1.62 1.8zm-0.68-0.99c0.6-0.15 1.06-1.35 0.27-0.4 0 0-0.15 0.19-0.15 0.19 0 0-0.12 0.21-0.12 0.21zm8.95 1.52c-0.49 0.62 0.86-0.58 1.04-0.77 0.38-0.4 1.57-1.49 1.24-1.52-0.71 0.81-1.51 1.54-2.28 2.29zm1.15-0.31c0.72-0.29 2.32-1.42 2.06-1.94-0.68 0.59-1.29 1.38-2.06 1.94zm-2.89-1.3c0.45-0.25-0.04-0.42 0 0zm-3.85-0.12c-0.34 0.58-1.48 1.43-1.38 1.73 0.38-0.32 2.66-1.7 1.38-1.73zm0.53 2.33c1.17 0.12 1.5-1.47 2.31-2.03-0.78 0.65-1.6 1.3-2.31 2.03zm-0.37-1.27c-0.58 0.21-1.48 1.51-0.44 0.63 0.31-0.43 1.65-1.13 1.35-1.37-0.36 0.17-0.6 0.5-0.91 0.74zm-0.37 1.18c0.84-0.29 2.05-1.68 2.21-1.88-0.81 0.54-1.59 1.14-2.21 1.89zm1.8 0.19c0.53-0.15 0.22-0.65 0 0z"/></g></svg>
